<svg width="34" height="34" viewBox="0 0 34 34" fill="none" xmlns="http://www.w3.org/2000/svg">
    <g id="copy 1">
        <g id="Copy">
            <path id="Vector" d="M23.7009 20.3093V5.47894C23.7009 3.72157 22.2707 2.29144 20.5134 2.29144H5.68298C3.92561 2.29144 2.49548 3.72157 2.49548 5.47894V20.3093C2.49548 22.0667 3.92561 23.4968 5.68298 23.4968H20.5134C22.2707 23.4968 23.7009 22.0667 23.7009 20.3093ZM4.62048 20.3093V5.47894C4.62048 4.89315 5.09719 4.41644 5.68298 4.41644H20.5134C21.0991 4.41644 21.5759 4.89315 21.5759 5.47894V20.3093C21.5759 20.8951 21.0991 21.3718 20.5134 21.3718H5.68298C5.09719 21.3718 4.62048 20.8951 4.62048 20.3093ZM28.3171 10.5032H25.7345C25.148 10.5032 24.672 10.9784 24.672 11.5657C24.672 12.1529 25.148 12.6282 25.7345 12.6282H28.3171C28.9029 12.6282 29.3796 13.1049 29.3796 13.6907V28.521C29.3796 29.1068 28.9029 29.5835 28.3171 29.5835H13.4874C12.9016 29.5835 12.4249 29.1068 12.4249 28.521V25.5836C12.4249 24.9971 11.9496 24.5211 11.3624 24.5211C10.7752 24.5211 10.2999 24.9971 10.2999 25.5836V28.521C10.2999 30.2784 11.73 31.7085 13.4874 31.7085H28.3171C30.0744 31.7085 31.5046 30.2784 31.5046 28.521V13.6907C31.5046 11.9333 30.0744 10.5032 28.3171 10.5032Z" fill="white"/>
        </g>
    </g>
</svg>
